<svg id="Group_137" data-name="Group 137" xmlns="http://www.w3.org/2000/svg" xmlns:xlink="http://www.w3.org/1999/xlink" width="452.952" height="232.476" viewBox="0 0 452.952 232.476">
  <defs>
    <linearGradient id="linear-gradient" y1="0.5" x2="1" y2="0.5" gradientUnits="objectBoundingBox">
      <stop offset="0" stop-color="#f4eed4"/>
      <stop offset="1" stop-color="#f4eec3"/>
    </linearGradient>
  </defs>
  <text id="DEV" transform="translate(210.952 128.264)" fill="#2b7faa" font-size="122" font-family="CenturyGothic, Century Gothic"><tspan x="0" y="0">DEV</tspan></text>
  <text id="ocean" transform="translate(218.019 186.153)" fill="#2b7faa" font-size="64" font-family="CenturyGothic, Century Gothic"><tspan x="0" y="0">ocean</tspan></text>
  <ellipse id="Ellipse_89" data-name="Ellipse 89" cx="90.329" cy="94.929" rx="90.329" ry="94.929" transform="matrix(0.961, -0.277, 0.277, 0.961, 0, 50.049)" fill="#2b7faa"/>
  <path id="Path_14" data-name="Path 14" d="M274.735,410.932c-14.674,23.359-37.309,37.059-70.767,38.566-49.349,2.218-90.291-29.3-91.443-70.4-.595-21.219,9.719-43.812,26.448-58.137l2.459-38.854c23.915-4.831,105.517-19.3,135.094,36.768C291.782,347.8,291.821,385.09,274.735,410.932Z" transform="translate(-90.917 -242.993)" fill="url(#linear-gradient)"/>
  <path id="Path_15" data-name="Path 15" d="M218.934,321.155a70.948,70.948,0,0,1,41.3,9.957c-17.278-2.261-22.627,33.579-40.1,41,16.722,17.474,3.021,52.483,29.563,54.239-21.945,7.5-47.688,1.786-60.938-4.48-14.46-6.839-20.972-20.067-26.938-30.564-8.2,31.886,15.38,47.568,38.642,52.955-35.015.506-56.578-23.61-56.543-49.661.02-15.458,5.892-27.5,15.826-40.084C172.643,338.187,192.689,323.139,218.934,321.155Z" transform="translate(-97.21 -251.836)" fill="#2b7faa"/>
</svg>
