<?xml version="1.0" encoding="utf-8"?>
<!-- Generator: Adobe Illustrator 24.1.2, SVG Export Plug-In . SVG Version: 6.00 Build 0)  -->
<svg version="1.1" id="Group_137" xmlns="http://www.w3.org/2000/svg" xmlns:xlink="http://www.w3.org/1999/xlink" x="0px" y="0px"
	 viewBox="0 0 453 198.7" style="enable-background:new 0 0 453 198.7;" xml:space="preserve">
<style type="text/css">
	.st0{fill:#2B7FAA;}
	.st4{fill:url(#Path_14_1_);}
</style>
<text transform="matrix(1 0 0 1 198.8467 111.9659)" font-weight="bold" font-size="105" font-family="Comfortaa" class="st0">DEV</text>
<text transform="matrix(1 0 0 1 206.2676 172.752)" font-weight="bold" font-size="64" font-family="Comfortaa" class="st0">ocean</text>
<ellipse id="Ellipse_89" transform="matrix(0.9609 -0.277 0.277 0.9609 -23.7587 30.5028)" class="st0" cx="96.1" cy="99.4" rx="94.9" ry="99.7"/>
<linearGradient id="Path_14_1_" gradientUnits="userSpaceOnUse" x1="-70.718" y1="522.4878" x2="-69.668" y2="522.4878" gradientTransform="matrix(175.2671 0 0 -172.7962 12394.5469 90387.4375)">
	<stop  offset="0" style="stop-color:#F4EED4"/>
	<stop  offset="1" style="stop-color:#F4EEC3"/>
</linearGradient>
<path id="Path_14" class="st4" d="M170.4,153.6c-15.4,24.5-39.2,38.9-74.3,40.5c-51.8,2.3-94.8-30.8-96-73.9
	c-0.6-22.3,10.2-46,27.8-61l2.6-40.8C55.5,13.3,141.2-1.9,172.2,57C188.3,87.3,188.3,126.5,170.4,153.6z"/>
<path id="Path_15" class="st0" d="M105.2,50.1c15.2-1,30.3,2.6,43.4,10.5c-18.1-2.4-23.8,35.3-42.1,43.1c17.6,18.3,3.2,55.1,31,57
	c-23,7.9-50.1,1.9-64-4.7c-15.2-7.2-22-21.1-28.3-32.1c-8.6,33.5,16.1,49.9,40.6,55.6c-36.8,0.5-59.4-24.8-59.4-52.1
	c0-16.2,6.2-28.9,16.6-42.1C56.5,68,77.6,52.2,105.2,50.1z"/>
</svg>
