<?xml version="1.0" encoding="utf-8"?>
<!-- Generator: Adobe Illustrator 24.1.2, SVG Export Plug-In . SVG Version: 6.00 Build 0)  -->
<svg version="1.1" id="Layer_1" xmlns="http://www.w3.org/2000/svg" xmlns:xlink="http://www.w3.org/1999/xlink" x="0px" y="0px"
	 viewBox="0 0 226.2 232.5" style="enable-background:new 0 0 226.2 232.5;" xml:space="preserve">
<style type="text/css">
	.st0{fill:#2B7FAA;}
	.st1{fill:url(#Path_14_1_);}
</style>
<g id="Group_139" transform="translate(0 0)">
	
		<ellipse id="Ellipse_89" transform="matrix(0.9609 -0.277 0.277 0.9609 -27.7704 35.8982)" class="st0" cx="113.2" cy="116.3" rx="111" ry="116.6"/>
	
		<linearGradient id="Path_14_1_" gradientUnits="userSpaceOnUse" x1="-183.069" y1="534.6194" x2="-181.8404" y2="534.6194" gradientTransform="matrix(175.2671 0 0 -172.7962 32086.7285 92501.3516)">
		<stop  offset="0" style="stop-color:#F4EED4"/>
		<stop  offset="1" style="stop-color:#F4EEC3"/>
	</linearGradient>
	<path id="Path_14" class="st1" d="M200.1,179.8c-18,28.7-45.8,45.5-86.9,47.4c-60.6,2.7-110.9-36-112.4-86.5
		C0,114.6,12.7,86.8,33.3,69.2l3-47.7c29.4-5.9,129.6-23.7,166,45.2C221,102.2,221.1,148,200.1,179.8z"/>
	<path id="Path_15" class="st0" d="M123.8,58.6c17.8-1.2,35.5,3.1,50.7,12.2c-21.2-2.8-27.8,41.3-49.3,50.4
		c20.5,21.5,3.7,64.5,36.3,66.6c-27,9.2-58.6,2.2-74.9-5.5c-17.8-8.4-25.8-24.7-33.1-37.6c-10.1,39.2,18.9,58.4,47.5,65.1
		c-43,0.6-69.5-29-69.5-61c0-19,7.2-33.8,19.4-49.2C66.9,79.5,91.5,61,123.8,58.6z"/>
</g>
</svg>
